<mxfile host="app.diagrams.net" modified="2023-10-17T04:15:42.712Z" agent="Mozilla/5.0 (Windows NT 10.0; Win64; x64; rv:109.0) Gecko/20100101 Firefox/118.0" etag="HYCZOQxwbxo2qj8uvXgO" version="22.0.4" type="github">
  <diagram name="Page-1" id="Yyr5Cia5EKAJTsDqXZdU">
    <mxGraphModel dx="880" dy="425" grid="1" gridSize="10" guides="1" tooltips="1" connect="1" arrows="1" fold="1" page="1" pageScale="1" pageWidth="850" pageHeight="1100" math="0" shadow="0">
      <root>
        <mxCell id="0" />
        <mxCell id="1" parent="0" />
        <mxCell id="_RyWgTy5TUY7SGYFAsYs-5" value="" style="edgeStyle=orthogonalEdgeStyle;rounded=0;orthogonalLoop=1;jettySize=auto;html=1;" parent="1" source="_RyWgTy5TUY7SGYFAsYs-1" target="_RyWgTy5TUY7SGYFAsYs-4" edge="1">
          <mxGeometry relative="1" as="geometry" />
        </mxCell>
        <mxCell id="_RyWgTy5TUY7SGYFAsYs-1" value="start" style="html=1;dashed=0;whiteSpace=wrap;shape=mxgraph.dfd.start" parent="1" vertex="1">
          <mxGeometry x="360" y="80" width="80" height="30" as="geometry" />
        </mxCell>
        <mxCell id="_RyWgTy5TUY7SGYFAsYs-7" value="" style="edgeStyle=orthogonalEdgeStyle;rounded=0;orthogonalLoop=1;jettySize=auto;html=1;" parent="1" source="_RyWgTy5TUY7SGYFAsYs-4" target="_RyWgTy5TUY7SGYFAsYs-6" edge="1">
          <mxGeometry relative="1" as="geometry" />
        </mxCell>
        <mxCell id="_RyWgTy5TUY7SGYFAsYs-4" value="&lt;div&gt;Ls&lt;/div&gt;&lt;div&gt;&lt;font style=&quot;font-size: 12px;&quot;&gt;a&lt;/font&gt;&lt;/div&gt;&lt;div&gt;&lt;font style=&quot;font-size: 12px;&quot;&gt;t&lt;br&gt;&lt;/font&gt;&lt;/div&gt;" style="shape=parallelogram;html=1;strokeWidth=2;perimeter=parallelogramPerimeter;whiteSpace=wrap;rounded=1;arcSize=12;size=0.23;" parent="1" vertex="1">
          <mxGeometry x="350" y="201" width="100" height="60" as="geometry" />
        </mxCell>
        <mxCell id="_RyWgTy5TUY7SGYFAsYs-9" value="" style="edgeStyle=orthogonalEdgeStyle;rounded=0;orthogonalLoop=1;jettySize=auto;html=1;" parent="1" source="_RyWgTy5TUY7SGYFAsYs-6" target="_RyWgTy5TUY7SGYFAsYs-8" edge="1">
          <mxGeometry relative="1" as="geometry" />
        </mxCell>
        <mxCell id="_RyWgTy5TUY7SGYFAsYs-6" value="Ls = 1/2 x a x t" style="html=1;dashed=0;whiteSpace=wrap;" parent="1" vertex="1">
          <mxGeometry x="350" y="320" width="100" height="50" as="geometry" />
        </mxCell>
        <mxCell id="_RyWgTy5TUY7SGYFAsYs-11" value="" style="edgeStyle=orthogonalEdgeStyle;rounded=0;orthogonalLoop=1;jettySize=auto;html=1;" parent="1" source="_RyWgTy5TUY7SGYFAsYs-8" target="_RyWgTy5TUY7SGYFAsYs-10" edge="1">
          <mxGeometry relative="1" as="geometry" />
        </mxCell>
        <mxCell id="_RyWgTy5TUY7SGYFAsYs-8" value="Ls" style="strokeWidth=2;html=1;shape=mxgraph.flowchart.decision;whiteSpace=wrap;" parent="1" vertex="1">
          <mxGeometry x="530" y="295" width="100" height="100" as="geometry" />
        </mxCell>
        <mxCell id="_RyWgTy5TUY7SGYFAsYs-10" value="End" style="html=1;dashed=0;whiteSpace=wrap;shape=mxgraph.dfd.start" parent="1" vertex="1">
          <mxGeometry x="540" y="450" width="80" height="30" as="geometry" />
        </mxCell>
      </root>
    </mxGraphModel>
  </diagram>
</mxfile>
